<?xml version="1.0" encoding="UTF-8"?>
<!DOCTYPE svg PUBLIC "-//W3C//DTD SVG 1.1//EN" "http://www.w3.org/Graphics/SVG/1.1/DTD/svg11.dtd">
<svg version="1.1" xmlns="http://www.w3.org/2000/svg" xmlns:xlink="http://www.w3.org/1999/xlink" x="0" y="0" width="2165.021" height="1100.129" viewBox="0, 0, 2165.021, 1100.129">
  <g id="Background">
    <rect x="0" y="0" width="2165.021" height="1100.129" fill="#000000" fill-opacity="0"/>
  </g>
  <g id="Layer_1">
    <g>
      <path d="M1066.392,1.5 L1099.39,1.5 L1099.39,1099.629 L1066.392,1099.629 L1066.392,1.5 z" fill="#929292"/>
      <path d="M1066.392,1.5 L1099.39,1.5 L1099.39,1099.629 L1066.392,1099.629 L1066.392,1.5 z" fill-opacity="0" stroke="#FFFFFF" stroke-width="1"/>
    </g>
    <g>
      <path d="M2131.521,1.5 L2164.52,1.5 L2164.52,1099.629 L2131.521,1099.629 L2131.521,1.5 z" fill="#929292"/>
      <path d="M2131.521,1.5 L2164.52,1.5 L2164.52,1099.629 L2131.521,1099.629 L2131.521,1.5 z" fill-opacity="0" stroke="#FFFFFF" stroke-width="1"/>
    </g>
    <g>
      <path d="M1487.486,145.11 L1497.047,136.75 L1519.239,136.75 L1599,434.608 L1599,511.389 L1580.396,492.729 L1487.486,145.11 z" fill="#929292"/>
      <path d="M1487.486,145.11 L1497.047,136.75 L1519.239,136.75 L1599,434.608 L1599,511.389 L1580.396,492.729 L1487.486,145.11 z" fill-opacity="0" stroke="#FFFFFF" stroke-width="1"/>
    </g>
    <g>
      <path d="M1598.957,34.499 L1631.955,34.499 L1631.955,1066.63 L1598.957,1066.63 L1598.957,34.499 z" fill="#929292"/>
      <path d="M1598.957,34.499 L1631.955,34.499 L1631.955,1066.63 L1598.957,1066.63 L1598.957,34.499 z" fill-opacity="0" stroke="#FFFFFF" stroke-width="1"/>
    </g>
    <g>
      <path d="M1099.391,58.565 L1099.506,35.191 L1122.724,35.231 L1599,511.389 L1598.957,534.065 L1574.89,534.065 L1099.391,58.565 z" fill="#929292"/>
      <path d="M1099.391,58.565 L1099.506,35.191 L1122.724,35.231 L1599,511.389 L1598.957,534.065 L1574.89,534.065 L1099.391,58.565 z" fill-opacity="0" stroke="#FFFFFF" stroke-width="1"/>
    </g>
    <g>
      <path d="M1575.623,34.499 L1598.956,34.499 L1598.957,57.833 L1520.039,136.75 L1497.057,136.75 L1497.047,136.74 L1497.047,113.074 L1575.623,34.499 z" fill="#929292"/>
      <path d="M1575.623,34.499 L1598.956,34.499 L1598.957,57.833 L1520.039,136.75 L1497.057,136.75 L1497.047,136.74 L1497.047,113.074 L1575.623,34.499 z" fill-opacity="0" stroke="#FFFFFF" stroke-width="1"/>
    </g>
    <g>
      <path d="M1487.486,145.11 L1497.047,136.75 L1497.047,113.391 L1202.997,34.499 L1122.724,35.231 L1138.723,51.221 L1487.486,145.11 z" fill="#929292"/>
      <path d="M1487.486,145.11 L1497.047,136.75 L1497.047,113.391 L1202.997,34.499 L1122.724,35.231 L1138.723,51.221 L1487.486,145.11 z" fill-opacity="0" stroke="#FFFFFF" stroke-width="1"/>
    </g>
    <g>
      <g>
        <path d="M1210.905,423.454 L1201.344,431.814 L1179.152,431.814 L1099.391,133.956 L1099.391,57.175 L1117.995,75.835 L1210.905,423.454 z" fill="#929292"/>
        <path d="M1210.905,423.454 L1201.344,431.814 L1179.152,431.814 L1099.391,133.956 L1099.391,57.175 L1117.995,75.835 L1210.905,423.454 z" fill-opacity="0" stroke="#FFFFFF" stroke-width="1"/>
      </g>
      <g>
        <path d="M1122.768,534.065 L1099.434,534.065 L1099.434,510.731 L1178.352,431.814 L1201.334,431.814 L1201.344,431.823 L1201.344,455.489 L1122.768,534.065 z" fill="#929292"/>
        <path d="M1122.768,534.065 L1099.434,534.065 L1099.434,510.731 L1178.352,431.814 L1201.334,431.814 L1201.344,431.823 L1201.344,455.489 L1122.768,534.065 z" fill-opacity="0" stroke="#FFFFFF" stroke-width="1"/>
      </g>
      <g>
        <path d="M1210.905,423.454 L1201.344,431.814 L1201.344,455.173 L1495.394,534.065 L1575.667,533.333 L1559.668,517.343 L1210.905,423.454 z" fill="#929292"/>
        <path d="M1210.905,423.454 L1201.344,431.814 L1201.344,455.173 L1495.394,534.065 L1575.667,533.333 L1559.668,517.343 L1210.905,423.454 z" fill-opacity="0" stroke="#FFFFFF" stroke-width="1"/>
      </g>
    </g>
    <g>
      <g>
        <path d="M1632.059,590.598 L1632.175,567.224 L1655.393,567.265 L2131.669,1043.422 L2131.24,1066.499 L2108.546,1066.499 L1632.059,590.598 z" fill="#929292"/>
        <path d="M1632.059,590.598 L1632.175,567.224 L1655.393,567.265 L2131.669,1043.422 L2131.24,1066.499 L2108.546,1066.499 L1632.059,590.598 z" fill-opacity="0" stroke="#FFFFFF" stroke-width="1"/>
      </g>
      <g>
        <path d="M2020.007,677.675 L2029.568,669.315 L2051.76,669.315 L2131.521,967.172 L2131.521,1043.953 L2112.917,1025.294 L2020.007,677.675 z" fill="#929292"/>
        <path d="M2020.007,677.675 L2029.568,669.315 L2051.76,669.315 L2131.521,967.172 L2131.521,1043.953 L2112.917,1025.294 L2020.007,677.675 z" fill-opacity="0" stroke="#FFFFFF" stroke-width="1"/>
      </g>
      <g>
        <path d="M2108.144,567.064 L2131.478,567.064 L2131.478,590.398 L2052.56,669.315 L2029.578,669.315 L2029.568,669.305 L2029.568,645.639 L2108.144,567.064 z" fill="#929292"/>
        <path d="M2108.144,567.064 L2131.478,567.064 L2131.478,590.398 L2052.56,669.315 L2029.578,669.315 L2029.568,669.305 L2029.568,645.639 L2108.144,567.064 z" fill-opacity="0" stroke="#FFFFFF" stroke-width="1"/>
      </g>
      <g>
        <path d="M2020.007,677.675 L2029.568,669.315 L2029.568,645.956 L1735.518,567.064 L1655.245,567.796 L1671.244,583.786 L2020.007,677.675 z" fill="#929292"/>
        <path d="M2020.007,677.675 L2029.568,669.315 L2029.568,645.956 L1735.518,567.064 L1655.245,567.796 L1671.244,583.786 L2020.007,677.675 z" fill-opacity="0" stroke="#FFFFFF" stroke-width="1"/>
      </g>
      <g>
        <g>
          <path d="M1743.469,956.019 L1733.909,964.378 L1711.717,964.378 L1631.955,666.521 L1631.955,589.74 L1650.559,608.4 L1743.469,956.019 z" fill="#929292"/>
          <path d="M1743.469,956.019 L1733.909,964.378 L1711.717,964.378 L1631.955,666.521 L1631.955,589.74 L1650.559,608.4 L1743.469,956.019 z" fill-opacity="0" stroke="#FFFFFF" stroke-width="1"/>
        </g>
        <g>
          <path d="M1655.333,1066.63 L1631.999,1066.63 L1631.999,1043.296 L1710.917,964.378 L1733.899,964.378 L1733.909,964.388 L1733.909,988.054 L1655.333,1066.63 z" fill="#929292"/>
          <path d="M1655.333,1066.63 L1631.999,1066.63 L1631.999,1043.296 L1710.917,964.378 L1733.899,964.378 L1733.909,964.388 L1733.909,988.054 L1655.333,1066.63 z" fill-opacity="0" stroke="#FFFFFF" stroke-width="1"/>
        </g>
        <g>
          <path d="M1743.469,956.019 L1733.909,964.378 L1733.909,987.737 L2027.958,1066.63 L2108.232,1065.897 L2092.233,1049.908 L1743.469,956.019 z" fill="#929292"/>
          <path d="M1743.469,956.019 L1733.909,964.378 L1733.909,987.737 L2027.958,1066.63 L2108.232,1065.897 L2092.233,1049.908 L1743.469,956.019 z" fill-opacity="0" stroke="#FFFFFF" stroke-width="1"/>
        </g>
      </g>
    </g>
    <g>
      <g>
        <path d="M1575.422,567.02 L1598.796,567.136 L1598.755,590.354 L1122.598,1066.63 L1099.521,1066.201 L1099.521,1043.507 L1575.422,567.02 z" fill="#929292"/>
        <path d="M1575.422,567.02 L1598.796,567.136 L1598.755,590.354 L1122.598,1066.63 L1099.521,1066.201 L1099.521,1043.507 L1575.422,567.02 z" fill-opacity="0" stroke="#FFFFFF" stroke-width="1"/>
      </g>
      <g>
        <path d="M1488.345,954.968 L1496.705,964.529 L1496.705,986.721 L1198.848,1066.482 L1122.067,1066.482 L1140.726,1047.878 L1488.345,954.968 z" fill="#929292"/>
        <path d="M1488.345,954.968 L1496.705,964.529 L1496.705,986.721 L1198.848,1066.482 L1122.067,1066.482 L1140.726,1047.878 L1488.345,954.968 z" fill-opacity="0" stroke="#FFFFFF" stroke-width="1"/>
      </g>
      <g>
        <path d="M1598.956,1043.105 L1598.956,1066.438 L1575.623,1066.438 L1496.705,987.521 L1496.705,964.539 L1496.715,964.529 L1520.381,964.529 L1598.956,1043.105 z" fill="#929292"/>
        <path d="M1598.956,1043.105 L1598.956,1066.438 L1575.623,1066.438 L1496.705,987.521 L1496.705,964.539 L1496.715,964.529 L1520.381,964.529 L1598.956,1043.105 z" fill-opacity="0" stroke="#FFFFFF" stroke-width="1"/>
      </g>
      <g>
        <path d="M1488.345,954.968 L1496.705,964.529 L1520.064,964.529 L1598.956,670.479 L1598.224,590.206 L1582.235,606.205 L1488.345,954.968 z" fill="#929292"/>
        <path d="M1488.345,954.968 L1496.705,964.529 L1520.064,964.529 L1598.956,670.479 L1598.224,590.206 L1582.235,606.205 L1488.345,954.968 z" fill-opacity="0" stroke="#FFFFFF" stroke-width="1"/>
      </g>
      <g>
        <g>
          <path d="M1210.002,678.43 L1201.642,668.869 L1201.642,646.677 L1499.499,566.916 L1576.28,566.916 L1557.62,585.52 L1210.002,678.43 z" fill="#929292"/>
          <path d="M1210.002,678.43 L1201.642,668.869 L1201.642,646.677 L1499.499,566.916 L1576.28,566.916 L1557.62,585.52 L1210.002,678.43 z" fill-opacity="0" stroke="#FFFFFF" stroke-width="1"/>
        </g>
        <g>
          <path d="M1099.391,590.294 L1099.391,566.96 L1122.724,566.96 L1201.642,645.878 L1201.642,668.859 L1201.632,668.869 L1177.966,668.869 L1099.391,590.294 z" fill="#929292"/>
          <path d="M1099.391,590.294 L1099.391,566.96 L1122.724,566.96 L1201.642,645.878 L1201.642,668.859 L1201.632,668.869 L1177.966,668.869 L1099.391,590.294 z" fill-opacity="0" stroke="#FFFFFF" stroke-width="1"/>
        </g>
        <g>
          <path d="M1210.002,678.43 L1201.642,668.869 L1178.283,668.869 L1099.391,962.919 L1100.123,1043.192 L1116.112,1027.194 L1210.002,678.43 z" fill="#929292"/>
          <path d="M1210.002,678.43 L1201.642,668.869 L1178.283,668.869 L1099.391,962.919 L1100.123,1043.192 L1116.112,1027.194 L1210.002,678.43 z" fill-opacity="0" stroke="#FFFFFF" stroke-width="1"/>
        </g>
      </g>
    </g>
    <g>
      <g>
        <path d="M2107.987,34.875 L2131.361,34.99 L2131.32,58.208 L1655.163,534.485 L1632.086,534.056 L1632.086,511.361 L2107.987,34.875 z" fill="#929292"/>
        <path d="M2107.987,34.875 L2131.361,34.99 L2131.32,58.208 L1655.163,534.485 L1632.086,534.056 L1632.086,511.361 L2107.987,34.875 z" fill-opacity="0" stroke="#FFFFFF" stroke-width="1"/>
      </g>
      <g>
        <path d="M2020.91,422.823 L2029.27,432.384 L2029.27,454.576 L1731.413,534.337 L1654.632,534.337 L1673.291,515.733 L2020.91,422.823 z" fill="#929292"/>
        <path d="M2020.91,422.823 L2029.27,432.384 L2029.27,454.576 L1731.413,534.337 L1654.632,534.337 L1673.291,515.733 L2020.91,422.823 z" fill-opacity="0" stroke="#FFFFFF" stroke-width="1"/>
      </g>
      <g>
        <path d="M2131.521,510.959 L2131.521,534.293 L2108.188,534.293 L2029.27,455.375 L2029.27,432.394 L2029.28,432.384 L2052.946,432.384 L2131.521,510.959 z" fill="#929292"/>
        <path d="M2131.521,510.959 L2131.521,534.293 L2108.188,534.293 L2029.27,455.375 L2029.27,432.394 L2029.28,432.384 L2052.946,432.384 L2131.521,510.959 z" fill-opacity="0" stroke="#FFFFFF" stroke-width="1"/>
      </g>
      <g>
        <path d="M2020.91,422.823 L2029.27,432.384 L2052.629,432.384 L2131.521,138.334 L2130.789,58.061 L2114.8,74.059 L2020.91,422.823 z" fill="#929292"/>
        <path d="M2020.91,422.823 L2029.27,432.384 L2052.629,432.384 L2131.521,138.334 L2130.789,58.061 L2114.8,74.059 L2020.91,422.823 z" fill-opacity="0" stroke="#FFFFFF" stroke-width="1"/>
      </g>
      <g>
        <g>
          <path d="M1742.567,146.285 L1734.207,136.724 L1734.207,114.532 L2032.064,34.771 L2108.845,34.771 L2090.185,53.375 L1742.567,146.285 z" fill="#929292"/>
          <path d="M1742.567,146.285 L1734.207,136.724 L1734.207,114.532 L2032.064,34.771 L2108.845,34.771 L2090.185,53.375 L1742.567,146.285 z" fill-opacity="0" stroke="#FFFFFF" stroke-width="1"/>
        </g>
        <g>
          <path d="M1631.955,58.149 L1631.955,34.815 L1655.289,34.815 L1734.207,113.732 L1734.207,136.714 L1734.197,136.724 L1710.531,136.724 L1631.955,58.149 z" fill="#929292"/>
          <path d="M1631.955,58.149 L1631.955,34.815 L1655.289,34.815 L1734.207,113.732 L1734.207,136.714 L1734.197,136.724 L1710.531,136.724 L1631.955,58.149 z" fill-opacity="0" stroke="#FFFFFF" stroke-width="1"/>
        </g>
        <g>
          <path d="M1742.567,146.285 L1734.207,136.724 L1710.848,136.724 L1631.955,430.774 L1632.688,511.047 L1648.677,495.048 L1742.567,146.285 z" fill="#929292"/>
          <path d="M1742.567,146.285 L1734.207,136.724 L1710.848,136.724 L1631.955,430.774 L1632.688,511.047 L1648.677,495.048 L1742.567,146.285 z" fill-opacity="0" stroke="#FFFFFF" stroke-width="1"/>
        </g>
      </g>
    </g>
    <g>
      <path d="M1.5,1.5 L34.499,1.5 L34.499,1099.629 L1.5,1099.629 L1.5,1.5 z" fill="#929292"/>
      <path d="M1.5,1.5 L34.499,1.5 L34.499,1099.629 L1.5,1099.629 L1.5,1.5 z" fill-opacity="0" stroke="#FFFFFF" stroke-width="1"/>
    </g>
    <g>
      <path d="M2164.521,1.5 L2164.521,34.499 L1.5,34.499 L1.5,1.5 L2164.521,1.5 z" fill="#929292"/>
      <path d="M2164.521,1.5 L2164.521,34.499 L1.5,34.499 L1.5,1.5 L2164.521,1.5 z" fill-opacity="0" stroke="#FFFFFF" stroke-width="1"/>
    </g>
    <g>
      <path d="M2164.52,1066.63 L2164.52,1099.629 L1.5,1099.629 L1.5,1066.63 L2164.52,1066.63 z" fill="#929292"/>
      <path d="M2164.52,1066.63 L2164.52,1099.629 L1.5,1099.629 L1.5,1066.63 L2164.52,1066.63 z" fill-opacity="0" stroke="#FFFFFF" stroke-width="1"/>
    </g>
    <g>
      <path d="M422.595,145.11 L432.156,136.75 L454.348,136.75 L534.109,434.608 L534.109,511.389 L515.505,492.729 L422.595,145.11 z" fill="#929292"/>
      <path d="M422.595,145.11 L432.156,136.75 L454.348,136.75 L534.109,434.608 L534.109,511.389 L515.505,492.729 L422.595,145.11 z" fill-opacity="0" stroke="#FFFFFF" stroke-width="1"/>
    </g>
    <g>
      <path d="M534.065,34.499 L567.064,34.499 L567.064,1066.63 L534.065,1066.63 L534.065,34.499 z" fill="#929292"/>
      <path d="M534.065,34.499 L567.064,34.499 L567.064,1066.63 L534.065,1066.63 L534.065,34.499 z" fill-opacity="0" stroke="#FFFFFF" stroke-width="1"/>
    </g>
    <g>
      <path d="M34.499,58.565 L34.615,35.191 L57.833,35.231 L534.109,511.389 L534.065,534.065 L509.999,534.065 L34.499,58.565 z" fill="#929292"/>
      <path d="M34.499,58.565 L34.615,35.191 L57.833,35.231 L534.109,511.389 L534.065,534.065 L509.999,534.065 L34.499,58.565 z" fill-opacity="0" stroke="#FFFFFF" stroke-width="1"/>
    </g>
    <g>
      <path d="M510.731,34.499 L534.065,34.499 L534.065,57.833 L455.147,136.75 L432.166,136.75 L432.156,136.74 L432.156,113.074 L510.731,34.499 z" fill="#929292"/>
      <path d="M510.731,34.499 L534.065,34.499 L534.065,57.833 L455.147,136.75 L432.166,136.75 L432.156,136.74 L432.156,113.074 L510.731,34.499 z" fill-opacity="0" stroke="#FFFFFF" stroke-width="1"/>
    </g>
    <g>
      <path d="M422.595,145.11 L432.156,136.75 L432.156,113.391 L138.106,34.499 L57.833,35.231 L73.831,51.221 L422.595,145.11 z" fill="#929292"/>
      <path d="M422.595,145.11 L432.156,136.75 L432.156,113.391 L138.106,34.499 L57.833,35.231 L73.831,51.221 L422.595,145.11 z" fill-opacity="0" stroke="#FFFFFF" stroke-width="1"/>
    </g>
    <g>
      <g>
        <path d="M146.013,423.454 L136.452,431.814 L114.26,431.814 L34.499,133.956 L34.499,57.175 L53.103,75.835 L146.013,423.454 z" fill="#929292"/>
        <path d="M146.013,423.454 L136.452,431.814 L114.26,431.814 L34.499,133.956 L34.499,57.175 L53.103,75.835 L146.013,423.454 z" fill-opacity="0" stroke="#FFFFFF" stroke-width="1"/>
      </g>
      <g>
        <path d="M57.876,534.065 L34.543,534.065 L34.543,510.731 L113.46,431.814 L136.442,431.814 L136.452,431.823 L136.452,455.489 L57.876,534.065 z" fill="#929292"/>
        <path d="M57.876,534.065 L34.543,534.065 L34.543,510.731 L113.46,431.814 L136.442,431.814 L136.452,431.823 L136.452,455.489 L57.876,534.065 z" fill-opacity="0" stroke="#FFFFFF" stroke-width="1"/>
      </g>
      <g>
        <path d="M146.013,423.454 L136.452,431.814 L136.452,455.173 L430.502,534.065 L510.775,533.333 L494.776,517.343 L146.013,423.454 z" fill="#929292"/>
        <path d="M146.013,423.454 L136.452,431.814 L136.452,455.173 L430.502,534.065 L510.775,533.333 L494.776,517.343 L146.013,423.454 z" fill-opacity="0" stroke="#FFFFFF" stroke-width="1"/>
      </g>
    </g>
    <g>
      <g>
        <path d="M567.168,590.598 L567.283,567.224 L590.501,567.265 L1066.777,1043.422 L1066.349,1066.499 L1043.654,1066.499 L567.168,590.598 z" fill="#929292"/>
        <path d="M567.168,590.598 L567.283,567.224 L590.501,567.265 L1066.777,1043.422 L1066.349,1066.499 L1043.654,1066.499 L567.168,590.598 z" fill-opacity="0" stroke="#FFFFFF" stroke-width="1"/>
      </g>
      <g>
        <path d="M955.116,677.675 L964.677,669.315 L986.869,669.315 L1066.63,967.173 L1066.63,1043.953 L1048.026,1025.294 L955.116,677.675 z" fill="#929292"/>
        <path d="M955.116,677.675 L964.677,669.315 L986.869,669.315 L1066.63,967.173 L1066.63,1043.953 L1048.026,1025.294 L955.116,677.675 z" fill-opacity="0" stroke="#FFFFFF" stroke-width="1"/>
      </g>
      <g>
        <path d="M1043.252,567.064 L1066.586,567.064 L1066.586,590.398 L987.668,669.315 L964.687,669.315 L964.677,669.305 L964.677,645.639 L1043.252,567.064 z" fill="#929292"/>
        <path d="M1043.252,567.064 L1066.586,567.064 L1066.586,590.398 L987.668,669.315 L964.687,669.315 L964.677,669.305 L964.677,645.639 L1043.252,567.064 z" fill-opacity="0" stroke="#FFFFFF" stroke-width="1"/>
      </g>
      <g>
        <path d="M955.116,677.675 L964.677,669.315 L964.677,645.956 L670.627,567.064 L590.354,567.796 L606.352,583.786 L955.116,677.675 z" fill="#929292"/>
        <path d="M955.116,677.675 L964.677,669.315 L964.677,645.956 L670.627,567.064 L590.354,567.796 L606.352,583.786 L955.116,677.675 z" fill-opacity="0" stroke="#FFFFFF" stroke-width="1"/>
      </g>
      <g>
        <g>
          <path d="M678.578,956.019 L669.017,964.378 L646.825,964.378 L567.064,666.521 L567.064,589.74 L585.668,608.4 L678.578,956.019 z" fill="#929292"/>
          <path d="M678.578,956.019 L669.017,964.378 L646.825,964.378 L567.064,666.521 L567.064,589.74 L585.668,608.4 L678.578,956.019 z" fill-opacity="0" stroke="#FFFFFF" stroke-width="1"/>
        </g>
        <g>
          <path d="M590.441,1066.63 L567.108,1066.63 L567.108,1043.296 L646.025,964.378 L669.007,964.378 L669.017,964.388 L669.017,988.054 L590.441,1066.63 z" fill="#929292"/>
          <path d="M590.441,1066.63 L567.108,1066.63 L567.108,1043.296 L646.025,964.378 L669.007,964.378 L669.017,964.388 L669.017,988.054 L590.441,1066.63 z" fill-opacity="0" stroke="#FFFFFF" stroke-width="1"/>
        </g>
        <g>
          <path d="M678.578,956.019 L669.017,964.378 L669.017,987.737 L963.067,1066.63 L1043.34,1065.897 L1027.341,1049.908 L678.578,956.019 z" fill="#929292"/>
          <path d="M678.578,956.019 L669.017,964.378 L669.017,987.737 L963.067,1066.63 L1043.34,1065.897 L1027.341,1049.908 L678.578,956.019 z" fill-opacity="0" stroke="#FFFFFF" stroke-width="1"/>
        </g>
      </g>
    </g>
    <g>
      <g>
        <path d="M510.53,567.02 L533.905,567.136 L533.864,590.354 L57.707,1066.63 L34.629,1066.201 L34.629,1043.507 L510.53,567.02 z" fill="#929292"/>
        <path d="M510.53,567.02 L533.905,567.136 L533.864,590.354 L57.707,1066.63 L34.629,1066.201 L34.629,1043.507 L510.53,567.02 z" fill-opacity="0" stroke="#FFFFFF" stroke-width="1"/>
      </g>
      <g>
        <path d="M423.453,954.968 L431.813,964.529 L431.813,986.721 L133.956,1066.482 L57.175,1066.482 L75.835,1047.878 L423.453,954.968 z" fill="#929292"/>
        <path d="M423.453,954.968 L431.813,964.529 L431.813,986.721 L133.956,1066.482 L57.175,1066.482 L75.835,1047.878 L423.453,954.968 z" fill-opacity="0" stroke="#FFFFFF" stroke-width="1"/>
      </g>
      <g>
        <path d="M534.065,1043.105 L534.065,1066.438 L510.731,1066.438 L431.813,987.521 L431.813,964.539 L431.823,964.529 L455.489,964.529 L534.065,1043.105 z" fill="#929292"/>
        <path d="M534.065,1043.105 L534.065,1066.438 L510.731,1066.438 L431.813,987.521 L431.813,964.539 L431.823,964.529 L455.489,964.529 L534.065,1043.105 z" fill-opacity="0" stroke="#FFFFFF" stroke-width="1"/>
      </g>
      <g>
        <path d="M423.453,954.968 L431.813,964.529 L455.172,964.529 L534.065,670.479 L533.332,590.206 L517.343,606.205 L423.453,954.968 z" fill="#929292"/>
        <path d="M423.453,954.968 L431.813,964.529 L455.172,964.529 L534.065,670.479 L533.332,590.206 L517.343,606.205 L423.453,954.968 z" fill-opacity="0" stroke="#FFFFFF" stroke-width="1"/>
      </g>
      <g>
        <g>
          <path d="M145.11,678.43 L136.75,668.869 L136.75,646.677 L434.607,566.916 L511.388,566.916 L492.729,585.52 L145.11,678.43 z" fill="#929292"/>
          <path d="M145.11,678.43 L136.75,668.869 L136.75,646.677 L434.607,566.916 L511.388,566.916 L492.729,585.52 L145.11,678.43 z" fill-opacity="0" stroke="#FFFFFF" stroke-width="1"/>
        </g>
        <g>
          <path d="M34.499,590.294 L34.499,566.96 L57.832,566.96 L136.75,645.878 L136.75,668.859 L136.74,668.869 L113.074,668.869 L34.499,590.294 z" fill="#929292"/>
          <path d="M34.499,590.294 L34.499,566.96 L57.832,566.96 L136.75,645.878 L136.75,668.859 L136.74,668.869 L113.074,668.869 L34.499,590.294 z" fill-opacity="0" stroke="#FFFFFF" stroke-width="1"/>
        </g>
        <g>
          <path d="M145.11,678.43 L136.75,668.869 L113.391,668.869 L34.499,962.919 L35.231,1043.192 L51.22,1027.194 L145.11,678.43 z" fill="#929292"/>
          <path d="M145.11,678.43 L136.75,668.869 L113.391,668.869 L34.499,962.919 L35.231,1043.192 L51.22,1027.194 L145.11,678.43 z" fill-opacity="0" stroke="#FFFFFF" stroke-width="1"/>
        </g>
      </g>
    </g>
    <g>
      <g>
        <path d="M1043.095,34.455 L1066.47,34.571 L1066.429,57.789 L590.272,534.065 L567.195,533.636 L567.195,510.942 L1043.095,34.455 z" fill="#929292"/>
        <path d="M1043.095,34.455 L1066.47,34.571 L1066.429,57.789 L590.272,534.065 L567.195,533.636 L567.195,510.942 L1043.095,34.455 z" fill-opacity="0" stroke="#FFFFFF" stroke-width="1"/>
      </g>
      <g>
        <path d="M956.018,422.403 L964.378,431.964 L964.378,454.156 L666.521,533.917 L589.74,533.917 L608.4,515.313 L956.018,422.403 z" fill="#929292"/>
        <path d="M956.018,422.403 L964.378,431.964 L964.378,454.156 L666.521,533.917 L589.74,533.917 L608.4,515.313 L956.018,422.403 z" fill-opacity="0" stroke="#FFFFFF" stroke-width="1"/>
      </g>
      <g>
        <path d="M1066.63,510.54 L1066.63,533.873 L1043.296,533.874 L964.378,454.956 L964.378,431.974 L964.388,431.964 L988.054,431.964 L1066.63,510.54 z" fill="#929292"/>
        <path d="M1066.63,510.54 L1066.63,533.873 L1043.296,533.874 L964.378,454.956 L964.378,431.974 L964.388,431.964 L988.054,431.964 L1066.63,510.54 z" fill-opacity="0" stroke="#FFFFFF" stroke-width="1"/>
      </g>
      <g>
        <path d="M956.018,422.403 L964.378,431.964 L987.737,431.964 L1066.63,137.914 L1065.897,57.641 L1049.908,73.64 L956.018,422.403 z" fill="#929292"/>
        <path d="M956.018,422.403 L964.378,431.964 L987.737,431.964 L1066.63,137.914 L1065.897,57.641 L1049.908,73.64 L956.018,422.403 z" fill-opacity="0" stroke="#FFFFFF" stroke-width="1"/>
      </g>
      <g>
        <g>
          <path d="M677.675,145.865 L669.315,136.304 L669.315,114.112 L967.172,34.351 L1043.953,34.351 L1025.294,52.955 L677.675,145.865 z" fill="#929292"/>
          <path d="M677.675,145.865 L669.315,136.304 L669.315,114.112 L967.172,34.351 L1043.953,34.351 L1025.294,52.955 L677.675,145.865 z" fill-opacity="0" stroke="#FFFFFF" stroke-width="1"/>
        </g>
        <g>
          <path d="M567.064,57.729 L567.064,34.395 L590.398,34.395 L669.315,113.313 L669.315,136.295 L669.305,136.304 L645.639,136.304 L567.064,57.729 z" fill="#929292"/>
          <path d="M567.064,57.729 L567.064,34.395 L590.398,34.395 L669.315,113.313 L669.315,136.295 L669.305,136.304 L645.639,136.304 L567.064,57.729 z" fill-opacity="0" stroke="#FFFFFF" stroke-width="1"/>
        </g>
        <g>
          <path d="M677.675,145.865 L669.315,136.304 L645.956,136.304 L567.064,430.354 L567.796,510.627 L583.785,494.629 L677.675,145.865 z" fill="#929292"/>
          <path d="M677.675,145.865 L669.315,136.304 L645.956,136.304 L567.064,430.354 L567.796,510.627 L583.785,494.629 L677.675,145.865 z" fill-opacity="0" stroke="#FFFFFF" stroke-width="1"/>
        </g>
      </g>
    </g>
    <g>
      <path d="M2164.521,534.065 L2164.521,567.064 L1.5,567.064 L1.5,534.065 L2164.521,534.065 z" fill="#929292"/>
      <path d="M2164.521,534.065 L2164.521,567.064 L1.5,567.064 L1.5,534.065 L2164.521,534.065 z" fill-opacity="0" stroke="#FFFFFF" stroke-width="1"/>
    </g>
  </g>
</svg>
